<?xml version="1.0" encoding="utf-8"?>
<svg id="Layer_1" style="enable-background:new 0 0 48 48;" x="0px" y="0px" viewBox="0 0 25 25" xmlns="http://www.w3.org/2000/svg">
  <g id="adjust-alt_2_" transform="matrix(1, 0, 0, 1, -12.000002, -11.5)">
    <path d="M27,21h-1v-9h-3v9h-1c-0.55,0-1,0.45-1,1v3c0,0.55,0.45,1,1,1h1h3h1c0.55,0,1-0.45,1-1v-3C28,21.45,27.55,21,27,21z M27,24&#10;&#9;&#9;h-5v-0.5h5V24z"/>
    <path d="M35,16h-1v-4h-3v4h-1c-0.55,0-1,0.45-1,1v3c0,0.55,0.45,1,1,1h1h3h1c0.55,0,1-0.45,1-1v-3C36,16.45,35.55,16,35,16z M35,19&#10;&#9;&#9;h-5v-0.5h5V19z"/>
    <rect x="23" y="27" width="3" height="9"/>
    <path d="M19,26h-1V12h-3v14h-1c-0.55,0-1,0.45-1,1v3c0,0.55,0.45,1,1,1h1h3h1c0.55,0,1-0.45,1-1v-3C20,26.45,19.55,26,19,26z&#10;&#9;&#9; M19,29h-5v-0.5h5V29z"/>
    <rect x="31" y="22" width="3" height="14"/>
    <rect x="15" y="32" width="3" height="4"/>
  </g>
</svg>