<?xml version="1.0" encoding="utf-8"?>
<svg id="Layer_1" style="enable-background:new 0 0 48 48;" x="0px" y="0px" viewBox="0 0 25 25" preserveAspectRatio="none" xmlns="http://www.w3.org/2000/svg">
  <g id="book-open_2_" transform="matrix(1, 0, 0, 1, -11.499999, -12.500503)">
    <path d="M35,16.8v-1.323c0,0-2.292-1.328-5.74-1.328c-3.448,0-5.26,1.25-5.26,1.25s-1.813-1.25-5.26-1.25&#10;&#9;&#9;c-3.448,0-5.74,1.328-5.74,1.328V16.8l-1,0.531v0.021v15.687c0,0,4.531-1.578,6.999-1.578c2.468,0,5.001,0.885,5.001,0.885&#10;&#9;&#9;s2.532-0.885,5-0.885c0.306,0,0.643,0.024,1,0.066v4.325l1.531-2.016L33,35.852v-3.72c2,0.43,3,0.906,3,0.906V17.352v-0.021&#10;&#9;&#9;L35,16.8z M23,29.03c-1-0.292-2.584-0.679-3.981-0.679c-2.246,0-3.019,0.404-4.019,0.699V16.634c0,0,1.125-0.699,4.019-0.699&#10;&#9;&#9;c1.694,0,2.981,0.417,3.981,1.126V29.03z M33,29.051c-1-0.295-1.773-0.699-4.02-0.699c-1.396,0-2.981,0.387-3.98,0.679V17.06&#10;&#9;&#9;c1-0.709,2.286-1.126,3.98-1.126c2.895,0,4.02,0.699,4.02,0.699V29.051z"/>
  </g>
</svg>