<?xml version="1.0" encoding="utf-8"?>
<svg id="Layer_1" style="enable-background:new 0 0 48 48;" x="0px" y="0px" viewBox="0 0 25 25" xmlns="http://www.w3.org/2000/svg">
  <g id="remove_2_" transform="matrix(1, 0, 0, 1, -11.503499, -11.495004)">
    <path d="M27.195,23.996l5.648-5.648c0.221-0.222,0.221-0.585,0-0.806l-2.383-2.383c-0.221-0.221-0.583-0.221-0.805,0l-5.649,5.649&#10;&#9;&#9;l-5.653-5.652c-0.222-0.221-0.584-0.221-0.805,0l-2.383,2.384c-0.222,0.22-0.222,0.582,0,0.806l5.652,5.651l-5.65,5.65&#10;&#9;&#9;c-0.22,0.22-0.22,0.583,0,0.805l2.383,2.383c0.222,0.22,0.586,0.22,0.806,0l5.649-5.649l5.646,5.647&#10;&#9;&#9;c0.221,0.221,0.585,0.221,0.806,0l2.384-2.384c0.22-0.22,0.22-0.583,0-0.806L27.195,23.996z"/>
  </g>
</svg>