<?xml version="1.0" encoding="utf-8"?>
<svg id="Layer_1" style="enable-background:new 0 0 48 48;" x="0px" y="0px" viewBox="0 0 25 25" xmlns="http://www.w3.org/2000/svg">
  <g id="download_1_" transform="matrix(1, 0, 0, 1, -11.5, -11.500001)">
    <path d="M36.25,24c0,6.755-5.495,12.25-12.25,12.25S11.75,30.755,11.75,24S17.245,11.75,24,11.75S36.25,17.245,36.25,24z M33,24&#10;&#9;&#9;c0-4.963-4.037-9-9-9s-9,4.037-9,9s4.037,9,9,9S33,28.963,33,24z M29.823,23.414l-5.647,7.428&#10;&#9;&#9;c-0.118,0.152-0.311,0.117-0.428-0.035L18.1,23.433C17.982,23.28,18.043,23,18.235,23H21v-4.469c0-0.275,0.225-0.5,0.5-0.5h5&#10;&#9;&#9;c0.275,0,0.5,0.225,0.5,0.5V23h2.688C29.879,23,29.941,23.263,29.823,23.414z"/>
  </g>
</svg>