<?xml version="1.0" encoding="utf-8"?>
<svg id="Layer_1" style="enable-background:new 0 0 48 48;" x="0px" y="0px" viewBox="0 0 25 25" xmlns="http://www.w3.org/2000/svg">
  <g id="fit-frame-to-image_2_" transform="matrix(1, 0, 0, 1, -11.500001, -11.500002)">
    <g>
      <path d="M35,12H13c-0.55,0-1,0.45-1,1v22c0,0.55,0.45,1,1,1h22c0.55,0,1-0.45,1-1V13C36,12.45,35.55,12,35,12z M34,34H14V14h20V34&#10;&#9;&#9;&#9;z M31.03,18.384l-1.823,1.823l1.616,1.616C30.92,21.92,30.888,22,30.75,22h-4.5C26.112,22,26,21.888,26,21.75v-4.5&#10;&#9;&#9;&#9;c0-0.138,0.08-0.17,0.177-0.073l1.616,1.616l1.823-1.823c0.097-0.097,0.256-0.097,0.354,0l1.061,1.06&#10;&#9;&#9;&#9;C31.128,18.128,31.128,18.287,31.03,18.384z M31.03,29.97l-1.061,1.06c-0.097,0.097-0.256,0.097-0.354,0l-1.823-1.823&#10;&#9;&#9;&#9;l-1.616,1.616C26.08,30.92,26,30.888,26,30.75v-4.5c0-0.138,0.112-0.25,0.25-0.25h4.5c0.138,0,0.17,0.08,0.073,0.177l-1.616,1.616&#10;&#9;&#9;&#9;l1.823,1.823C31.128,29.713,31.128,29.872,31.03,29.97z M16.97,18.03l1.061-1.06c0.097-0.097,0.256-0.097,0.354,0l1.823,1.823&#10;&#9;&#9;&#9;l1.616-1.616C21.92,17.08,22,17.112,22,17.25v4.5c0,0.138-0.112,0.25-0.25,0.25h-4.5c-0.138,0-0.17-0.08-0.073-0.177l1.616-1.616&#10;&#9;&#9;&#9;l-1.823-1.823C16.872,18.287,16.872,18.128,16.97,18.03z M16.97,29.616l1.823-1.823l-1.616-1.616C17.08,26.08,17.112,26,17.25,26&#10;&#9;&#9;&#9;h4.5c0.138,0,0.25,0.112,0.25,0.25v4.5c0,0.138-0.08,0.17-0.177,0.073l-1.616-1.616l-1.823,1.823&#10;&#9;&#9;&#9;c-0.097,0.097-0.256,0.097-0.354,0l-1.061-1.06C16.872,29.872,16.872,29.713,16.97,29.616z"/>
    </g>
  </g>
</svg>