<?xml version="1.0" encoding="utf-8"?>
<svg id="Layer_1" style="enable-background:new 0 0 48 48;" x="0px" y="0px" viewBox="0 0 22.225 22.453" xmlns="http://www.w3.org/2000/svg">
  <g id="show-big-thumbnails_2_" transform="matrix(1, 0, 0, 1, -12.887501, -12.773501)">
    <path style="fill-rule:evenodd;clip-rule:evenodd;" d="M25.5,35c-0.275,0-0.5-0.225-0.5-0.5v-9c0-0.275,0.225-0.5,0.5-0.5h9&#10;&#9;&#9;c0.275,0,0.5,0.225,0.5,0.5v9c0,0.275-0.225,0.5-0.5,0.5H25.5z M22.5,35c0.275,0,0.5-0.225,0.5-0.5v-9c0-0.275-0.225-0.5-0.5-0.5&#10;&#9;&#9;h-9c-0.275,0-0.5,0.225-0.5,0.5v9c0,0.275,0.225,0.5,0.5,0.5H22.5z M34.5,23c0.275,0,0.5-0.225,0.5-0.5v-9&#10;&#9;&#9;c0-0.275-0.225-0.5-0.5-0.5h-9c-0.275,0-0.5,0.225-0.5,0.5v9c0,0.275,0.225,0.5,0.5,0.5H34.5z M22.5,23c0.275,0,0.5-0.225,0.5-0.5&#10;&#9;&#9;v-9c0-0.275-0.225-0.5-0.5-0.5h-9c-0.275,0-0.5,0.225-0.5,0.5v9c0,0.275,0.225,0.5,0.5,0.5H22.5z"/>
  </g>
</svg>