<?xml version="1.0" encoding="utf-8"?>
<svg id="Layer_1" style="enable-background:new 0 0 48 48;" x="0px" y="0px" viewBox="0 0 22.301 22.377" xmlns="http://www.w3.org/2000/svg">
  <g id="show-thumbnails_2_" transform="matrix(1, 0, 0, 1, -12.8495, -12.811501)">
    <path style="fill-rule:evenodd;clip-rule:evenodd;" d="M29.5,35c-0.275,0-0.5-0.225-0.5-0.5v-5c0-0.275,0.225-0.5,0.5-0.5h5&#10;&#9;&#9;c0.275,0,0.5,0.225,0.5,0.5v5c0,0.275-0.225,0.5-0.5,0.5H29.5z M21.5,35c-0.275,0-0.5-0.225-0.5-0.5v-5c0-0.275,0.225-0.5,0.5-0.5&#10;&#9;&#9;h5c0.275,0,0.5,0.225,0.5,0.5v5c0,0.275-0.225,0.5-0.5,0.5H21.5z M13.5,35c-0.275,0-0.5-0.225-0.5-0.5v-5&#10;&#9;&#9;c0-0.275,0.225-0.5,0.5-0.5h5c0.275,0,0.5,0.225,0.5,0.5v5c0,0.275-0.225,0.5-0.5,0.5H13.5z M29.5,27c-0.275,0-0.5-0.225-0.5-0.5&#10;&#9;&#9;v-5c0-0.275,0.225-0.5,0.5-0.5h5c0.275,0,0.5,0.225,0.5,0.5v5c0,0.275-0.225,0.5-0.5,0.5H29.5z M21.5,27&#10;&#9;&#9;c-0.275,0-0.5-0.225-0.5-0.5v-5c0-0.275,0.225-0.5,0.5-0.5h5c0.275,0,0.5,0.225,0.5,0.5v5c0,0.275-0.225,0.5-0.5,0.5H21.5z&#10;&#9;&#9; M13.5,27c-0.275,0-0.5-0.225-0.5-0.5v-5c0-0.275,0.225-0.5,0.5-0.5h5c0.275,0,0.5,0.225,0.5,0.5v5c0,0.275-0.225,0.5-0.5,0.5H13.5&#10;&#9;&#9;z M29.5,19c-0.275,0-0.5-0.225-0.5-0.5v-5c0-0.275,0.225-0.5,0.5-0.5h5c0.275,0,0.5,0.225,0.5,0.5v5c0,0.275-0.225,0.5-0.5,0.5&#10;&#9;&#9;H29.5z M21.5,19c-0.275,0-0.5-0.225-0.5-0.5v-5c0-0.275,0.225-0.5,0.5-0.5h5c0.275,0,0.5,0.225,0.5,0.5v5&#10;&#9;&#9;c0,0.275-0.225,0.5-0.5,0.5H21.5z M13.5,19c-0.275,0-0.5-0.225-0.5-0.5v-5c0-0.275,0.225-0.5,0.5-0.5h5c0.275,0,0.5,0.225,0.5,0.5&#10;&#9;&#9;v5c0,0.275-0.225,0.5-0.5,0.5H13.5z"/>
  </g>
</svg>