<?xml version="1.0" encoding="utf-8"?>
<svg id="Layer_1" style="enable-background:new 0 0 48 48;" x="0px" y="0px" viewBox="0 0 25 25" xmlns="http://www.w3.org/2000/svg">
  <g id="link_1_" transform="matrix(1, 0, 0, 1, -11.310002, -11.256501)">
    <path d="M32.799,21.854l-2.133,2.132c-0.277-0.961-0.798-1.885-1.559-2.683l1.57-1.571c0.562-0.56,0.299-1.519-0.266-2.084&#10;&#9;&#9;l-1.641-1.64c-0.518-0.518-1.358-0.79-1.983-0.165l-5.245,5.244c-0.597,0.598-0.379,1.443,0.146,1.978v-0.001&#10;&#9;&#9;c0.009,0.009,0.016,0.019,0.022,0.025l2.805,2.805l-2.121,2.121l-2.805-2.804L19.579,25.2c-0.003-0.004-0.005-0.006-0.008-0.01&#10;&#9;&#9;c-0.002-0.001-0.003-0.003-0.005-0.004l0,0c-1.778-1.793-1.844-4.521-0.145-6.221l5.245-5.244c1.699-1.699,4.435-1.627,6.226,0.164&#10;&#9;&#9;l1.641,1.641C34.381,17.374,34.498,20.153,32.799,21.854z M25.236,19.543c-0.004-0.005-0.01-0.009-0.014-0.013l-2.122,2.121&#10;&#9;&#9;c0.005,0.006,0.01,0.009,0.015,0.014l2.7,2.699c0.566,0.566,0.827,1.523,0.266,2.086l-5.244,5.244&#10;&#9;&#9;c-0.566,0.566-1.528,0.307-2.093-0.26l-1.641-1.639c-0.533-0.533-0.758-1.389-0.156-1.99l1.559-1.559&#10;&#9;&#9;c-0.777-0.781-1.302-1.699-1.582-2.661l-2.098,2.098c-1.704,1.704-1.635,4.442,0.156,6.233l1.64,1.64&#10;&#9;&#9;c1.818,1.817,4.661,1.935,6.336,0.259l5.245-5.244c1.699-1.699,1.582-4.479-0.267-6.328L25.236,19.543z"/>
  </g>
</svg>