<?xml version="1.0" encoding="utf-8"?>
<svg id="Layer_1" style="enable-background:new 0 0 48 48;" x="0px" y="0px" viewBox="0 0 25 25" xmlns="http://www.w3.org/2000/svg">
    <g id="tag_2_">
        <path id="tag_1_" d="M622.504,696.707c-0.389-0.389-1.157-0.707-1.707-0.707H603c-0.55,0-1,0.45-1,1v17.799
            c0,0.55,0.318,1.318,0.707,1.707l26.778,26.778c0.389,0.389,1.025,0.389,1.414,0l18.385-18.385c0.389-0.389,0.389-1.025,0-1.414
            L622.504,696.707z M614.636,708.636c-1.562,1.562-4.094,1.562-5.656,0s-1.562-4.094,0-5.656s4.094-1.562,5.656,0
            S616.198,707.073,614.636,708.636z"/>
    </g>
</svg>