<?xml version="1.0" encoding="utf-8"?>
<svg id="Layer_1" style="enable-background:new 0 0 48 48;" x="0px" y="0px" viewBox="0.456 0 25 25" xmlns="http://www.w3.org/2000/svg">
  <g id="note_2_" transform="matrix(1, 0, 0, 1, -11.044001, -11.500001)">
    <path d="M29.425,29h4.47L29,33.934v-4.47C29,29.19,29.151,29,29.425,29z M34,14.563V28h-5.569C28.157,28,28,28.196,28,28.47V34&#10;&#9;&#9;H14.497C14.223,34,14,33.71,14,33.437V14.563C14,14.29,14.223,14,14.497,14h18.9C33.672,14,34,14.29,34,14.563z M25.497,26.497&#10;&#9;&#9;C25.497,26.223,25.275,26,25,26h-7c-0.275,0-0.497,0.223-0.497,0.497v1.006C17.503,27.777,17.725,28,18,28h7&#10;&#9;&#9;c0.275,0,0.497-0.223,0.497-0.497V26.497z M30.497,22.497C30.497,22.223,30.275,22,30,22H18c-0.275,0-0.497,0.223-0.497,0.497&#10;&#9;&#9;v1.006C17.503,23.777,17.725,24,18,24h12c0.275,0,0.497-0.223,0.497-0.497V22.497z M30.497,18.497C30.497,18.223,30.275,18,30,18&#10;&#9;&#9;H18c-0.275,0-0.497,0.223-0.497,0.497v1.006C17.503,19.777,17.725,20,18,20h12c0.275,0,0.497-0.223,0.497-0.497V18.497z"/>
  </g>
</svg>