<?xml version="1.0" encoding="utf-8"?>
<svg id="Layer_1" style="enable-background:new 0 0 48 48;" x="0px" y="0px" viewBox="0 0 25 25" xmlns="http://www.w3.org/2000/svg">
  <g id="fit-image-to-frame_2_" transform="matrix(1, 0, 0, 1, -11.500001, -11.500002)">
    <g>
      <path d="M35,12H13c-0.55,0-1,0.45-1,1v22c0,0.55,0.45,1,1,1h22c0.55,0,1-0.45,1-1V13C36,12.45,35.55,12,35,12z M34,34H14V14h20V34&#10;&#9;&#9;&#9;z"/>
    </g>
    <g>
      <path d="M17,21.75v-4.5c0-0.138,0.112-0.25,0.25-0.25h4.5c0.138,0,0.17,0.08,0.073,0.177l-1.616,1.616l1.823,1.823&#10;&#9;&#9;&#9;c0.097,0.097,0.097,0.256,0,0.354l-1.061,1.06c-0.097,0.097-0.256,0.097-0.354,0l-1.823-1.823l-1.616,1.616&#10;&#9;&#9;&#9;C17.08,21.92,17,21.888,17,21.75z M20.97,25.97c-0.097-0.097-0.256-0.097-0.354,0l-1.823,1.823l-1.616-1.616&#10;&#9;&#9;&#9;C17.08,26.08,17,26.112,17,26.25v4.5c0,0.138,0.112,0.25,0.25,0.25h4.5c0.138,0,0.17-0.08,0.073-0.177l-1.616-1.616l1.823-1.823&#10;&#9;&#9;&#9;c0.097-0.097,0.097-0.256,0-0.354L20.97,25.97z M30.75,17h-4.5c-0.138,0-0.17,0.08-0.073,0.177l1.616,1.616l-1.823,1.823&#10;&#9;&#9;&#9;c-0.097,0.097-0.097,0.256,0,0.354l1.061,1.06c0.097,0.097,0.256,0.097,0.354,0l1.823-1.823l1.616,1.616&#10;&#9;&#9;&#9;C30.92,21.92,31,21.888,31,21.75v-4.5C31,17.112,30.888,17,30.75,17z M30.823,26.177l-1.616,1.616l-1.823-1.823&#10;&#9;&#9;&#9;c-0.097-0.097-0.256-0.097-0.354,0l-1.061,1.06c-0.097,0.097-0.097,0.256,0,0.354l1.823,1.823l-1.616,1.616&#10;&#9;&#9;&#9;C26.08,30.92,26.112,31,26.25,31h4.5c0.138,0,0.25-0.112,0.25-0.25v-4.5C31,26.112,30.92,26.08,30.823,26.177z M26,22.5&#10;&#9;&#9;&#9;c0-0.275-0.225-0.5-0.5-0.5h-3c-0.275,0-0.5,0.225-0.5,0.5v3c0,0.275,0.225,0.5,0.5,0.5h3c0.275,0,0.5-0.225,0.5-0.5V22.5z"/>
    </g>
  </g>
</svg>
