<?xml version="1.0" encoding="utf-8"?>
<svg id="Layer_1" style="enable-background:new 0 0 48 48;" x="0px" y="0px" viewBox="0 0 25 25" xmlns="http://www.w3.org/2000/svg">
  <g id="zoom-out_2_" transform="matrix(1, 0, 0, 1, -12.711001, -11.960003)">
    <path d="M19.5,23c-0.275,0-0.5-0.225-0.5-0.5v-1c0-0.275,0.225-0.5,0.5-0.5h7c0.275,0,0.5,0.225,0.5,0.5v1c0,0.275-0.225,0.5-0.5,0.5H19.5z"/>
    <path d="M37.219,34.257l-2.213,2.212c-0.202,0.202-0.534,0.202-0.736,0l-6.098-6.099c-1.537,0.993-3.362,1.577-5.323,1.577c-5.431,0-9.849-4.418-9.849-9.849c0-5.431,4.418-9.849,9.849-9.849c5.431,0,9.849,4.418,9.849,9.849c0,1.961-0.584,3.786-1.576,5.323l6.098,6.098C37.422,33.722,37.422,34.054,37.219,34.257z M29.568,22.099c0-3.706-3.014-6.72-6.72-6.72c-3.706,0-6.72,3.014-6.72,6.72c0,3.706,3.014,6.72,6.72,6.72C26.555,28.818,29.568,25.805,29.568,22.099z"/>
  </g>
</svg>
